<svg width="208" height="331" viewBox="0 0 208 331" fill="none" xmlns="http://www.w3.org/2000/svg">
<rect x="1.47363" y="0.94043" width="205.511" height="329.02" fill="#F2F2F2" stroke="#EEEEEE"/>
<path d="M64.8438 162.045H43.8301L60.0679 174.653L51.6625 196.813L72.6762 183.059V141.031L64.8438 162.045Z" fill="#DCDCDD"/>
<path d="M149.661 144.47V110.657C149.661 99.1946 140.3 89.834 128.838 89.834H72.6743V141.031L80.6977 162.045H101.52L85.4736 174.653L93.8791 196.813L72.6743 183.058V236.166H128.265C140.109 236.166 149.661 226.614 149.661 214.77V181.339C149.661 172.934 144.121 165.292 136.098 162.809C144.121 160.516 149.661 153.066 149.661 144.47ZM125.591 200.825C125.591 206.365 121.006 210.949 115.466 210.949H99.6101V175.035H115.466C121.006 175.035 125.591 179.62 125.591 185.16V200.825V200.825ZM125.591 139.503C125.591 145.043 121.006 149.628 115.466 149.628H99.6101V115.241H115.466C121.006 115.241 125.591 119.826 125.591 125.366V139.503V139.503Z" fill="#DCDCDD"/>
</svg>
