<svg width="209" height="331" viewBox="0 0 209 331" fill="none" xmlns="http://www.w3.org/2000/svg">
<rect x="1.15625" y="25.8262" width="205.511" height="274.347" fill="white" stroke="#EEEEEE"/>
<rect x="2.47363" y="0.94043" width="205.511" height="329.02" fill="#F2F2F2" stroke="#EEEEEE"/>
<path d="M65.8438 162.045H44.8301L61.0679 174.653L52.6625 196.813L73.6762 183.059V141.031L65.8438 162.045Z" fill="#DCDCDD"/>
<path d="M150.661 144.47V110.657C150.661 99.1946 141.3 89.834 129.838 89.834H73.6743V141.031L81.6977 162.045H102.52L86.4736 174.653L94.8791 196.813L73.6743 183.058V236.166H129.265C141.109 236.166 150.661 226.614 150.661 214.77V181.339C150.661 172.934 145.121 165.292 137.098 162.809C145.121 160.516 150.661 153.066 150.661 144.47ZM126.591 200.825C126.591 206.365 122.006 210.949 116.466 210.949H100.61V175.035H116.466C122.006 175.035 126.591 179.62 126.591 185.16V200.825ZM126.591 139.503C126.591 145.043 122.006 149.628 116.466 149.628H100.61V115.241H116.466C122.006 115.241 126.591 119.826 126.591 125.366V139.503Z" fill="#DCDCDD"/>
</svg>
