<svg width="207" height="331" viewBox="0 0 207 331" fill="none" xmlns="http://www.w3.org/2000/svg">
<rect x="0.5" y="0.5" width="205.511" height="329.02" fill="white" stroke="#EEEEEE"/>
<path d="M63.8701 161.604H42.8564L59.0943 174.213L50.6888 196.372L71.7025 182.618V140.591L63.8701 161.604Z" fill="#DCDCDD"/>
<path d="M148.687 144.029V110.216C148.687 98.754 139.327 89.3933 127.865 89.3933H71.7007V140.59L79.7241 161.604H100.547L84.4999 174.212L92.9054 196.372L71.7007 182.618V235.725H127.292C139.136 235.725 148.687 226.173 148.687 214.329V180.898C148.687 172.493 143.147 164.852 135.124 162.368C143.147 160.076 148.687 152.625 148.687 144.029ZM124.617 200.384C124.617 205.924 120.032 210.509 114.492 210.509H98.6364V174.594H114.492C120.032 174.594 124.617 179.179 124.617 184.719V200.384V200.384ZM124.617 139.062C124.617 144.602 120.032 149.187 114.492 149.187H98.6364V114.801H114.492C120.032 114.801 124.617 119.386 124.617 124.926V139.062V139.062Z" fill="#DCDCDD"/>
</svg>
