<svg width="19" height="18" viewBox="0 0 19 18" fill="none" xmlns="http://www.w3.org/2000/svg">
<path d="M1.89637 14.2057C1.93466 13.8611 1.9538 13.6888 2.00594 13.5278C2.05219 13.3849 2.11753 13.2489 2.20021 13.1236C2.29339 12.9823 2.41596 12.8597 2.66112 12.6145L13.6664 1.6093C14.5868 0.688826 16.0792 0.688827 16.9997 1.6093C17.9202 2.52978 17.9202 4.02216 16.9997 4.94264L5.99445 15.9479C5.7493 16.193 5.62672 16.3156 5.48541 16.4088C5.36005 16.4914 5.22408 16.5568 5.08121 16.603C4.92018 16.6552 4.74789 16.6743 4.40331 16.7126L1.58301 17.026L1.89637 14.2057Z" stroke="#161619" stroke-width="1.66667" stroke-linecap="round" stroke-linejoin="round"/>
</svg>
